<svg xmlns="http://www.w3.org/2000/svg"  viewBox="0 0 24 24" width="24px" height="24px"><path d="M 16.240234 4.75 A 1.250125 1.250125 0 1 0 16.240234 7.25 L 20.759766 7.25 A 1.250125 1.250125 0 1 0 20.759766 4.75 L 16.240234 4.75 z M 6.875 4.9902344 L 1.2460938 5.0039062 A 1.250125 1.250125 0 0 0 -0.001953125 6.2539062 L -0.001953125 18.759766 A 1.250125 1.250125 0 0 0 1.2480469 20.009766 L 7.3789062 20.009766 C 9.9224486 20.009766 12.005859 17.915373 12.005859 15.373047 C 12.005859 13.835911 11.193759 12.529405 10.029297 11.683594 C 10.610162 10.971431 11.007813 10.100513 11.007812 9.1191406 C 11.007812 6.855287 9.1465792 4.9902344 6.8789062 4.9902344 A 1.250125 1.250125 0 0 0 6.875 4.9902344 z M 6.8789062 7.4902344 C 7.7912333 7.4902344 8.5078125 8.2089942 8.5078125 9.1191406 C 8.5078125 10.016606 7.8037065 10.719378 6.9101562 10.738281 L 2.4980469 10.748047 L 2.4980469 7.5 L 6.8789062 7.4902344 z M 18.498047 7.9765625 C 15.390307 7.9765625 12.986328 10.75678 12.986328 14 C 12.986328 17.233205 15.390307 20.009766 18.498047 20.009766 C 20.146688 20.009766 21.632849 19.206986 22.623047 17.988281 A 1.2503375 1.2503375 0 1 0 20.681641 16.412109 C 20.111838 17.113405 19.345406 17.509766 18.498047 17.509766 C 17.257951 17.509766 16.148382 16.598578 15.705078 15.25 L 22.761719 15.25 A 1.250125 1.250125 0 0 0 24.011719 14 C 24.011719 10.75678 21.605787 7.9765625 18.498047 7.9765625 z M 18.498047 10.476562 C 19.740536 10.476562 20.851474 11.390344 21.292969 12.75 L 15.705078 12.75 C 16.146573 11.390344 17.255558 10.476562 18.498047 10.476562 z M 7.3789062 13.236328 C 8.5633641 13.236328 9.5058594 14.181373 9.5058594 15.373047 C 9.5058594 16.564721 8.5633641 17.509766 7.3789062 17.509766 L 2.4980469 17.509766 L 2.4980469 13.248047 L 6.6992188 13.238281 A 1.250125 1.250125 0 0 0 6.8789062 13.25 C 6.9009542 13.25 6.9194363 13.238631 6.9414062 13.238281 L 7.3789062 13.236328 z"/></svg>